<svg version="1.2" xmlns="http://www.w3.org/2000/svg" viewBox="0 0 1408 768" width="1408" height="768">
	<style>
		.s0 { fill: #b60606 } 
		.s1 { fill: #ff2b00 } 
	</style>
	<path id="Path 0" fill-rule="evenodd" class="s0" d="m706 117.59c-2.48 0.22-8.77 0.88-14 1.48-5.23 0.6-13.77 2-19 3.12-5.23 1.12-14 3.59-19.5 5.49-5.5 1.9-18.33 7.47-28.5 12.38-14.39 6.95-21.06 9.56-30 11.77-6.33 1.57-20.73 4.57-32 6.68-11.27 2.11-20.95 4.23-21.5 4.72-0.59 0.53 1.04 0.67 4 0.33 2.75-0.3 14.9-1.46 27-2.57 12.1-1.11 25.15-2.53 29-3.16 5.59-0.9 10.83-3.08 26-10.76 10.81-5.48 23.52-11.08 29.5-13 5.77-1.86 15.67-4.42 22-5.69 6.33-1.28 18.92-2.84 28-3.46 9.19-0.64 22.7-0.86 30.5-0.5 7.7 0.36 18.5 1.12 24 1.69 5.5 0.57 12.7 1.6 16 2.3 5.32 1.11 3.62 1.2-15 0.79-12.43-0.28-26.51 0.02-34.5 0.74-7.42 0.66-13.95 1.45-14.5 1.74-0.55 0.29 5.3 6.82 13 14.49 7.7 7.68 14.79 14.38 15.75 14.89 0.96 0.52 10.64 1.85 21.5 2.97 10.86 1.12 25.38 2.95 32.25 4.07 6.88 1.12 18.13 3.33 25 4.91 6.88 1.59 15.2 3.8 18.5 4.93 3.3 1.12 6.23 1.82 6.5 1.55 0.27-0.26-2.2-1.65-5.5-3.09-3.3-1.43-8.92-3.71-12.5-5.06-3.58-1.36-12.58-3.97-20-5.8-7.42-1.84-17.33-3.95-22-4.69l-8.5-1.35c13.17-1.01 23.52-1.34 31.5-1.38 7.98-0.04 21.25 0.36 29.5 0.9 8.25 0.54 20.63 1.89 27.5 3.01 6.88 1.12 15.65 2.96 19.5 4.08 3.85 1.11 9.48 2.93 12.5 4.03 3.02 1.09 8.88 3.76 13 5.94l7.5 3.94c-8.14-7.77-10.5-10.24-10.5-10.52 0-0.28 3.26 0.67 7.25 2.11 3.99 1.43 9.73 3.92 12.75 5.53 3.02 1.6 6.55 3.69 7.82 4.64l2.33 1.72-4.15 7.5c4.73 8.98 6.11 10.48 7.52 10.42 1.09-0.04 2.99-0.38 4.23-0.75 1.9-0.57 2.41-0.17 3.27 2.58 0.56 1.79 1.01 4.26 1 5.5-0.02 1.62-1.28 2.95-4.52 4.75-2.48 1.37-4.5 2.95-4.5 3.5 0 0.63 1.55 0.72 4.16 0.25l4.17-0.75c-1.07 7.75-1.6 11.69-1.86 13.75-0.29 2.34-0.94 3.63-1.72 3.43-0.69-0.18-2.83-3.12-4.75-6.52-2.3-4.07-4.36-6.46-6-6.97-1.38-0.43-16.45-0.4-33.5 0.07-18.45 0.51-32.21 1.31-34 1.98-1.65 0.63-6.6 4.66-11 8.98l-8 7.84c-21.96-0.43-28.6-0.79-28.93-1.06-0.32-0.28 1.33-3.82 3.67-7.87 2.34-4.06 4.71-7.77 5.26-8.26 0.55-0.49 6.63-1.32 13.5-1.85 6.88-0.53 13.17-0.99 14-1.02 1.33-0.05 1.33-0.16 0-0.93-0.83-0.48-6.34-1.6-12.25-2.47-5.91-0.88-12.77-1.6-15.25-1.6-2.48 0-5.74 0.62-7.25 1.38-1.51 0.75-3.92 3.12-5.35 5.25-1.44 2.13-4.02 6.68-5.75 10.12-2.6 5.16-3.59 6.25-5.65 6.25-1.38 0-3.55-1.01-4.83-2.25-1.5-1.45-2.59-4.03-3.07-7.25-0.41-2.75-1.65-8.6-2.77-13-1.11-4.4-3.56-11.04-5.43-14.75-1.87-3.71-4.86-8.38-6.65-10.38-1.79-1.99-5.05-4.69-7.25-5.99-2.2-1.29-6.25-2.65-9-3-2.82-0.37-6.52-0.17-8.5 0.45-1.92 0.61-5.3 2.39-7.5 3.95-2.53 1.8-5.2 5.13-7.25 9.04-1.79 3.4-2.99 6.52-2.67 6.93 0.31 0.41 1.78-0.68 3.25-2.42 1.47-1.75 4.92-4.57 7.67-6.27 3.77-2.33 6.17-3.09 9.75-3.07 2.61 0 6.44 0.85 8.5 1.87 2.06 1.02 5.18 3.61 6.92 5.75 1.74 2.14 4.32 6.36 5.73 9.39 1.41 3.03 3.24 8.65 4.06 12.5 0.9 4.2 1.51 12.31 1.52 20.25l0.02 13.25c61.61-0.03 90.98-0.47 105-1.01 14.02-0.53 30.9-1.44 37.5-2.01 6.6-0.57 14.48-1.53 17.5-2.12 3.02-0.6 6.63-1.65 8-2.33 1.37-0.69 2.84-1.99 3.25-2.89 0.46-1.01-0.07-3.07-1.4-5.39-2.02-3.54-2.1-4.5-1.36-17.25 0.58-10.03 0.46-14.53-0.49-17.5-0.7-2.2-2.79-7.15-4.64-11-2.15-4.47-5.09-8.56-8.12-11.32-2.61-2.38-9.24-6.52-14.74-9.21-5.5-2.69-14.73-6.2-20.5-7.81-5.77-1.61-17.25-4.09-25.5-5.51-8.25-1.42-18.6-2.87-23-3.23-5.9-0.48-9.31-1.36-13-3.35-2.75-1.48-9.73-5.42-15.5-8.76-5.77-3.33-13.88-7.54-18-9.33-4.13-1.8-10.42-4.27-14-5.5-3.58-1.22-11.23-3.17-17-4.34-5.77-1.16-14.55-2.59-19.5-3.18-4.95-0.59-18.45-1.22-30-1.41-11.55-0.19-23.02-0.17-25.5 0.04zm235.22 71.84c1.08-1.39 1.37-1.3 2.47 0.75 0.68 1.28 1.26 2.88 1.27 3.57 0.02 0.71-0.93 1.14-2.2 1-1.24-0.14-2.36-1.03-2.5-2-0.14-0.96 0.29-2.46 0.96-3.32zm-51.22 37.17c8.52-0.7 21.58-1.32 29-1.37 9.82-0.08 12.82 0.17 11 0.88-1.38 0.55-14.42 1.16-55.5 1.76zm-4 6.4c5.23-0.34 16.25-0.64 24.5-0.66 11.1-0.04 13.44 0.15 9 0.7-3.3 0.41-14.33 0.7-24.5 0.66-14.86-0.07-16.63-0.21-9-0.7zm9.31 5.89c19.35-0.89 36.31-1.64 37.69-1.68 1.38-0.04 3.4 0.28 4.5 0.7 1.78 0.68 1.67 0.85-1 1.49-1.65 0.4-7.27 1.14-12.5 1.64-5.23 0.51-22.33 1.21-38 1.57-24.19 0.55-28.3 0.44-27.19-0.73 1-1.06 9.54-1.76 36.5-2.99zm-214.31-106.24c-1.37 0.2-5.2 0.84-8.5 1.41-3.3 0.57-10.27 2.34-15.5 3.94-5.23 1.59-11.98 3.98-15 5.3-3.02 1.33-6.29 3.15-7.25 4.05-0.96 0.91-1.75 2.32-1.75 3.15 0 0.82 1.46 2.4 3.25 3.51 1.79 1.11 4.83 2.44 6.75 2.97 1.92 0.52 10.48 1.63 19 2.45 8.52 0.83 27.2 2.21 41.5 3.06 14.3 0.86 26.11 1.43 26.24 1.28 0.13-0.15-1.2-2.3-2.94-4.77-1.75-2.48-5.49-7.2-8.32-10.5-2.83-3.3-7.36-7.64-10.06-9.64-2.71-2.01-7.4-4.37-10.42-5.26-3.02-0.89-7.52-1.55-10-1.47-2.48 0.08-5.62 0.31-7 0.52zm-82.5 34.96c-4.4 0.18-15.87 0.82-25.5 1.42-9.62 0.59-26.05 2.19-36.5 3.54-10.45 1.35-19.23 2.74-19.5 3.08-0.27 0.35 4 0.34 9.5-0.02 5.5-0.35 25.3-0.91 44-1.23 18.7-0.32 36.38-0.21 39.28 0.26l5.28 0.84-8.56 9.4c-17.83-5.44-23.03-6.88-23.06-6.71-0.04 0.17-1.67 2.56-3.62 5.31-1.96 2.75-5.42 8.49-7.69 12.75-2.27 4.26-4.14 8.54-4.16 9.5-0.02 0.96 3.61 5.35 8.07 9.75l8.1 8c-3.14 11.62-4.29 16.24-4.59 17.75-0.52 2.59-1.13 2.87-10.3 4.83-5.36 1.14-10.54 2.26-11.5 2.5-0.96 0.23-1.98 1.54-2.25 2.92-0.27 1.37-0.54 7.34-0.6 13.25-0.05 5.91 0.19 12.32 0.53 14.25 0.59 3.25 1.04 3.62 6.35 5.18 3.15 0.92 8.28 2.27 11.41 3l5.69 1.32 5.28 21c-5.87 4.65-9.73 8.14-12.37 10.75l-4.79 4.75c3.98 8.91 7.36 15.21 10.07 19.75 2.71 4.54 5.49 8.49 6.18 8.78 0.69 0.29 6.2-1.02 12.25-2.91l11-3.44 15.5 15.82c-5.53 16.66-6.95 21.95-6.72 22.5 0.23 0.55 3.07 2.78 6.32 4.95 3.24 2.18 9.64 6 14.21 8.5l8.31 4.55c13.7-15.01 17.35-18.25 18.13-17.84 0.69 0.37 5.3 1.67 10.25 2.89l9 2.23c3.96 17.63 5.62 22.67 6.5 23.23 0.83 0.53 7.35 0.97 14.5 0.99 7.15 0.01 14.35-0.23 16-0.54 2.94-0.55 3.05-0.8 5.5-12.06 2.3-10.58 2.7-11.54 5-12.01 1.38-0.29 6.1-1.61 10.5-2.95l8-2.43c3.73 4.25 7.33 8.33 10.41 11.81l5.59 6.33c11.63-5.75 18.49-9.61 22.75-12.28 4.48-2.82 7.56-5.4 7.31-6.12-0.25-0.69-1.85-5.98-3.57-11.75l-3.13-10.5c11.35-11.25 15.31-14.51 16.14-14.5 0.83 0.01 5.77 1.36 11 3 5.23 1.64 9.95 2.98 10.5 2.99 0.55 0.01 2.34-2.12 3.97-4.74 1.63-2.61 4.58-7.68 6.55-11.25 1.97-3.58 4.23-8.03 5.03-9.91l1.45-3.4-17.43-16.19 5.43-19.94c16.56-3.92 21.83-5.51 22.4-6.06 0.56-0.55 1.16-5.5 1.31-11l0.29-10c-17.05 0.32-28.75 0.43-37 0.45l-15 0.04c-1.11 19.33-2.06 24.91-4 31.01-1.49 4.67-4.28 11.65-6.21 15.5-1.92 3.85-4.99 9.25-6.81 12-1.83 2.75-5.98 7.92-9.23 11.5-3.25 3.57-9.03 8.83-12.83 11.68-3.81 2.85-11.19 7.21-16.42 9.7-5.23 2.49-13.55 5.53-18.5 6.76-7.21 1.79-11.88 2.24-23.5 2.26-10.42 0.01-16.4-0.47-21.25-1.69-3.71-0.94-10.24-3.04-14.5-4.66-4.26-1.63-11.35-5.29-15.75-8.13-4.4-2.85-10.65-7.49-13.89-10.3-3.24-2.82-8.59-8.72-11.9-13.12-3.31-4.4-7.97-12.05-10.36-17-2.39-4.95-5.31-12.6-6.5-17-1.77-6.53-2.18-10.85-2.22-23.5-0.04-11.49 0.39-17.25 1.66-22.25 0.94-3.71 3.04-10.24 4.68-14.5 1.63-4.26 5.63-11.8 8.88-16.75 3.26-4.95 9.02-12.03 12.79-15.74 3.77-3.71 9.11-8.36 11.86-10.34 2.75-1.97 7.59-4.9 10.75-6.51 5.62-2.84 5.94-2.89 14-1.92 4.54 0.55 14.33 2.09 21.75 3.42 7.42 1.33 19.35 3.8 26.5 5.5l13 3.08c8.74-8.13 11.33-10.72 11.4-10.99 0.07-0.28-6.07-1.28-13.64-2.24-7.57-0.96-22.31-2.85-32.76-4.2-10.45-1.36-27.77-3.14-38.5-3.96-10.73-0.83-27.15-1.68-36.5-1.91-9.35-0.22-20.6-0.26-25-0.08zm27.16 17.64c8.46-8.36 9.72-9.25 16.84-9.23l-3.49 2.74c-1.92 1.51-5.52 4.54-8 6.75-2.48 2.21-6.56 6.26-9.06 9-2.51 2.74-5.91 6.79-7.57 8.99-1.66 2.2-4.38 6.25-6.04 9-1.67 2.75-4.61 8.6-6.55 13-1.93 4.4-4.47 12.05-5.64 17-1.17 4.95-2.17 11.02-2.24 13.5-0.06 2.47-0.47 5.62-0.91 7-0.64 2-0.82 1.51-0.91-2.5-0.06-2.75 0.8-9.28 1.91-14.5 1.11-5.23 3.2-13.1 4.65-17.5 1.45-4.4 4.2-11.15 6.13-15 1.92-3.85 5.3-9.7 7.5-13 2.21-3.3 8.23-10.16 13.38-15.25zm185.43 107.99c1.16-4.54 2.32-7.46 2.58-6.5 0.26 0.97-0.71 5.81-2.16 10.76-1.45 4.95-4.02 12.15-5.7 16-1.68 3.85-5.39 10.6-8.24 15-2.85 4.4-8.09 11.11-11.63 14.92-3.54 3.81-10.04 9.59-14.44 12.85-4.4 3.27-11.6 7.67-16 9.79-4.4 2.11-12.27 5-17.5 6.42-5.23 1.42-10.85 2.99-12.5 3.5-1.65 0.5-7.05 1.19-12 1.53-5.67 0.38-8.45 0.26-7.5-0.32 0.83-0.51 5.1-1.2 9.5-1.53 4.4-0.33 11.38-1.55 15.5-2.7 4.12-1.16 11.33-3.9 16-6.09 4.67-2.2 12.29-6.56 16.91-9.68 4.63-3.13 11.88-9.07 16.11-13.19 4.24-4.13 10.51-11.33 13.94-16 3.43-4.68 8.22-12.55 10.64-17.5 2.42-4.95 5.34-12.72 6.49-17.26zm-18.09-112.74c0 0.82 1.71 3.64 3.81 6.25 2.09 2.61 6.25 6.54 9.25 8.73 2.99 2.2 7.46 4.51 9.94 5.15 2.48 0.64 10.94 1.77 18.82 2.52l14.32 1.35 12.36-12.88c-6.98-2.04-16.88-4.21-26.5-6.13-9.63-1.93-22-4.17-27.5-4.99-5.5-0.82-11.01-1.49-12.25-1.5-1.34 0-2.25 0.61-2.25 1.5zm23.5 8.07c0.9-0.86 2.29-1.57 3.07-1.57 0.79 0 7.39 1.4 14.68 3.11 7.29 1.71 13.7 3.53 14.25 4.05 0.63 0.59-0.48 0.73-3 0.37-2.2-0.31-6.7-0.97-10-1.47-5.7-0.86-6.09-0.78-7.75 1.52-1.24 1.71-2.7 2.41-5 2.4-1.79 0-3.75-0.34-4.35-0.75-0.61-0.4-1.62-1.74-2.25-2.98-0.63-1.24-1.18-2.44-1.22-2.68-0.04-0.24 0.67-1.14 1.57-2zm53.75 4.43c-1.79 1.1-4.38 4.02-5.75 6.5-1.38 2.47-2.38 5.29-2.23 6.25 0.14 0.96 1.38 2.29 2.75 2.94 1.36 0.66 5.63 1.68 9.48 2.26 3.85 0.58 12.63 1.47 19.5 1.96 9.33 0.68 14.79 0.57 21.5-0.43 4.95-0.74 11.44-2.16 14.41-3.16 2.98-1 5.91-2.58 6.5-3.51 0.79-1.22 0.76-2.73-0.1-5.5-0.66-2.1-2.12-5.05-3.25-6.56l-2.06-2.75c-55.73 0.01-57.7 0.13-60.75 2zm-189 251.56c-2.89 0.79-7.05 2.34-9.25 3.44-2.2 1.1-6.09 3.91-8.64 6.25-2.55 2.34-5.65 5.82-6.88 7.75-1.23 1.92-3.03 6.2-3.99 9.5-1.22 4.19-1.62 8.26-1.33 13.5 0.31 5.78 1.12 8.98 3.54 14 1.94 4.02 5.07 8.31 8.22 11.25 2.79 2.61 7.44 5.86 10.33 7.22 2.89 1.36 7.73 2.94 10.75 3.51 3.02 0.57 7.75 1.04 10.5 1.03 2.75 0 7.59-0.68 10.75-1.51 3.16-0.82 7.66-2.47 10-3.66 2.34-1.19 6.5-4.29 9.25-6.89 2.75-2.6 6.34-7.36 7.98-10.59 2.77-5.44 2.98-6.65 3-16.86 0.02-10.11-0.21-11.45-2.79-16.5-1.55-3.03-4.93-7.68-7.5-10.33-2.58-2.66-6.83-5.92-9.44-7.25-2.61-1.33-7.34-3.1-10.5-3.93-3.16-0.82-8.67-1.47-12.25-1.43-3.58 0.04-8.86 0.72-11.75 1.5zm7.25 15.53c2.75-0.47 6.58-0.63 8.5-0.37 1.92 0.26 5.51 1.45 7.96 2.63 2.57 1.24 5.65 3.84 7.26 6.15 1.54 2.2 3.26 6.25 3.82 9 0.69 3.39 0.69 6.61 0.01 10-0.56 2.75-2.26 6.68-3.78 8.73-1.53 2.05-5.02 4.87-7.77 6.26-3.74 1.89-6.52 2.52-11 2.5-3.55-0.02-7.63-0.77-10-1.83-2.2-0.99-5.05-2.89-6.34-4.23-1.28-1.34-3.24-4.23-4.35-6.43-1.43-2.84-1.99-5.88-1.95-10.5 0.05-4.79 0.68-7.69 2.41-11 1.3-2.48 4.13-5.75 6.29-7.28 2.17-1.54 6.19-3.17 8.94-3.63zm173.25-15.06c-3.16 1.08-7.66 3.15-10 4.59-2.34 1.44-5.75 4.02-7.59 5.75-1.84 1.72-4.61 5.6-6.15 8.63-1.55 3.02-3.32 8.2-3.94 11.5-0.8 4.27-0.83 7.94-0.1 12.75 0.57 3.71 2.1 8.89 3.4 11.5 1.31 2.61 3.67 6.3 5.25 8.19 1.59 1.89 5.36 5.05 8.38 7.04 3.31 2.17 8.48 4.34 13 5.46 5.48 1.35 9.52 1.7 15 1.3 4.15-0.3 10.18-1.58 13.5-2.85 3.3-1.27 8.14-4.01 10.75-6.1 2.61-2.08 4.74-4.35 4.74-5.04-0.01-0.69-2.48-3.39-5.5-6-3.02-2.61-5.72-4.75-5.99-4.75-0.27 0-1.96 1.19-3.75 2.65-1.79 1.46-4.83 3.3-6.75 4.1-1.95 0.81-6.38 1.41-10 1.35-4.62-0.06-7.78-0.74-10.93-2.35-2.44-1.24-5.59-3.66-7-5.39-1.41-1.72-3.13-4.87-3.8-7-0.68-2.12-1.24-5.66-1.25-7.86 0-2.2 0.44-5.69 0.99-7.75 0.54-2.06 2.9-5.81 5.24-8.33 3.25-3.49 5.55-4.93 9.75-6.11 3.74-1.06 7.1-1.32 10.5-0.85 2.75 0.39 6.35 1.41 8 2.26 1.65 0.86 4.35 2.64 6 3.96 2.89 2.31 3.07 2.33 4.85 0.61 1.02-0.99 3.72-3.48 6-5.55l4.15-3.76c-4.13-4.25-7.5-6.69-10.16-8.17-2.66-1.48-7.54-3.39-10.84-4.25-3.3-0.87-9.15-1.55-13-1.53-4.25 0.02-9.26 0.81-12.75 2zm-437.33-0.19c-0.39 0.47-0.42 4.07-0.07 8l0.65 7.16h28c-0.5 39.67-0.52 39.86-3 42.39-1.38 1.41-3.85 2.73-5.5 2.94-1.65 0.21-4.58-0.06-6.5-0.6-1.93-0.54-5.08-2.53-7-4.43l-3.5-3.43c-5.7 6.69-7.95 9.67-8.68 10.94-0.98 1.72-1.04 2.75-0.22 4 0.6 0.93 2.85 2.92 5 4.42 2.14 1.5 6.82 3.47 10.4 4.37 4.11 1.03 8.71 1.46 12.5 1.15 3.3-0.26 8.43-1.55 11.4-2.87 2.98-1.31 6.69-3.84 8.25-5.63 1.57-1.79 3.53-5.61 4.36-8.5 1.18-4.12 1.51-11.22 1.5-33l-0.01-27.75c-36.32 0-47.19 0.38-47.58 0.84zm81.29 12.91c-3.6 7.56-11.54 24.66-17.63 38-6.09 13.34-11.08 24.47-11.08 24.75 0 0.27 4.16 0.52 9.25 0.54 6.36 0.03 9.61-0.36 10.41-1.25 0.64-0.71 2.32-4.33 3.75-8.04l2.59-6.75 36.5-0.07 7.5 16.07c15.5 0 20-0.23 20-0.5 0-0.28-6.36-14.11-14.13-30.75-7.77-16.64-15.87-33.74-18-38l-3.87-7.75h-18.75zm10.09 18.93c4.64-10.42 5.88-12.47 6.67-11 0.52 1 3.09 6.77 10.42 23.82l-6.19 0.3c-3.41 0.16-8.54 0.16-16.61-0.3zm58.79-32.1c-0.53 0.43-0.84 16.69-0.75 38.58l0.17 37.83h19l0.5-21.5c27.55-0.95 29.55-1.26 34.5-3.64 3.02-1.46 6.98-4.38 8.78-6.5 1.81-2.12 4-6.33 4.88-9.36 1.07-3.68 1.4-7.31 1-11-0.33-3.02-1.66-7.52-2.94-10-1.29-2.47-4.34-5.99-6.78-7.82-2.44-1.83-6.69-4.05-9.44-4.92-3.73-1.2-10.47-1.71-26.5-2.01-11.83-0.23-21.92-0.07-22.42 0.34zm19.42 15.41h10c6.55 0 11.12 0.5 13.25 1.45 1.93 0.86 3.96 2.88 5 5 1.14 2.32 1.54 4.68 1.15 6.8-0.33 1.79-1.23 4.27-2 5.5-0.77 1.24-2.98 2.93-4.9 3.75-2.29 0.99-6.78 1.5-22.5 1.5v-12zm154.24 22.25l0.26 38.25 18.5 0.5c0-34 0.38-42.19 1-42.5 0.55-0.27 9.21 9.18 19.25 21l18.25 21.5h15.5v-77l-18.5 0.5-1 43.68c-11.56-13.7-20-23.64-26.21-30.93l-11.29-13.25h-16.03zm169.77-13.75c0 15.23 0.44 26.49 1.18 29.75 0.65 2.89 2.59 7.28 4.32 9.75 1.72 2.48 5.35 5.99 8.06 7.81 2.72 1.82 6.74 3.83 8.94 4.48 2.2 0.65 8.5 1.18 14 1.19 9.13 0.02 10.56-0.25 16.5-3.08 3.57-1.71 7.78-4.4 9.36-6 1.57-1.59 4.05-5.15 5.5-7.9l2.64-5 0.15-55.5h-18.65c0 42.92-0.34 49.81-1.37 52.25-0.74 1.79-2.32 4.04-3.5 5-1.17 0.97-2.58 1.53-3.13 1.25-0.55-0.27-1.23 0.18-1.5 1-0.38 1.13-2.07 1.5-6.75 1.47-4.3-0.02-7.19-0.61-9.25-1.88-1.65-1.02-3.9-3.59-5-5.72-1.82-3.52-2.02-6.09-2.24-28.62l-0.23-24.75h-19.03zm-394 71.02c-2.48 0.83-5.97 2.62-7.75 3.99-1.79 1.37-3.99 3.96-4.88 5.74-1.11 2.22-1.51 5.05-1.25 8.91 0.29 4.31 0.97 6.31 2.88 8.39 1.37 1.5 4.3 3.52 6.5 4.49 2.2 0.98 7.37 2.5 11.5 3.4 4.12 0.89 8.96 2.51 10.75 3.59 1.92 1.17 3.25 2.79 3.25 3.97 0 1.36-1.21 2.52-3.75 3.62-2.62 1.13-5.57 1.48-9.75 1.16-3.43-0.26-8.57-1.6-12-3.12-3.3-1.47-6.06-2.55-6.13-2.41-0.07 0.14-1.31 2.62-2.75 5.5l-2.62 5.25c12.45 5.88 14.96 6.44 23 6.83 7 0.34 10.81 0.04 14.5-1.15 2.75-0.88 6.23-2.52 7.75-3.64 1.51-1.12 3.7-3.95 4.87-6.29 1.61-3.22 1.98-5.34 1.56-8.75-0.31-2.47-1.42-5.62-2.47-7-1.04-1.37-3.66-3.5-5.81-4.72-2.15-1.22-7.95-3.16-12.9-4.32-4.95-1.15-10.02-2.74-11.25-3.53-1.36-0.86-2.25-2.42-2.25-3.93 0-1.93 0.84-2.86 3.75-4.11 2.77-1.2 5.3-1.46 9.75-0.99 3.3 0.35 7.68 1.53 9.75 2.62l3.75 1.98c3.87-7.75 5.01-10.33 5.04-10.75 0.02-0.41-2.34-1.84-5.25-3.18-4.09-1.87-7.35-2.49-14.29-2.73-6.09-0.21-10.46 0.17-13.5 1.18zm60.02 7.73c-2.14 4.54-8.02 17.25-13.06 28.25-5.05 11-9.35 20.57-9.57 21.25-0.29 0.93 1.62 1.26 7.36 1.29l7.75 0.04 5-12.15 28 0.06 5.5 12.01h16c-5.26-11.23-9.14-19.45-12.02-25.5-2.88-6.05-7.66-16.06-10.61-22.25l-5.37-11.25h-15.08zm10.27 9.86c0.61-1.31 1.2-2.21 1.32-2 0.12 0.22 2.05 4.56 8.39 18.89h-8.5c-8.42 0-8.49-0.02-7.6-2.25 0.5-1.23 1.89-4.5 3.1-7.25 1.2-2.75 2.69-6.07 3.29-7.39zm31.9-14.39c1.27 2.1 4.93 8.08 8.14 13.3 3.2 5.21 7.37 11.96 9.24 14.98 3.34 5.37 3.42 5.76 3.42 16.25l0.01 10.75h16l-0.02-21.5c17.09-27.9 22.05-36.33 22.04-36.75-0.01-0.41-3.25-0.63-7.19-0.5l-7.17 0.25c-11.04 17.83-14.68 22.97-15.21 22.92-0.52-0.04-4.15-5.22-8.06-11.5l-7.12-11.42-16.38-0.58zm64.8 25.78v29.5h14l-0.03-33.5c17.52 27.65 17.54 27.67 21.03 27.33 3.33-0.31 3.9-0.99 11.5-13.56l8-13.23 0.5 32.96h14.5v-58.5l-13.5-0.5c-15.89 26.31-20.84 33.96-21.25 33.97-0.41 0.02-5.59-7.64-11.5-17.01l-10.75-17.04-12.5 0.08zm96.28-18.29c-2.82 6.21-8.99 19.5-13.7 29.54l-8.58 18.25h16l5.5-12.08 27.5 0.08 5.5 12.05 15.5-0.05c-1.66-4.26-5-11.58-8.49-19-3.49-7.43-9.07-19.35-12.4-26.5l-6.05-13-15.64-0.57zm8.13 13.8c2.15-4.96 4.18-9.03 4.5-9.05 0.32-0.02 2.38 4.07 4.58 9.09 3.38 7.71 3.77 9.26 2.5 9.94-0.82 0.45-4.42 0.57-8 0.28-3.57-0.3-6.72-0.7-7-0.89-0.27-0.19 1.27-4.41 3.42-9.37zm44.58 4.48v29.5h15c0-28.3 0.29-31.92 1.25-31.68 0.69 0.18 7.31 7.27 14.71 15.75l13.45 15.43 12.59 0.5v-59l-14.5 0.5-1 32.82-28-33.17-13.5-0.15z"/>
	<path id="Path 0" class="s1" d="m694.5 200.7c-1.65 0.22-5.48 1.1-8.5 1.95-3.02 0.86-8.2 2.93-11.5 4.6-3.3 1.67-8.25 4.69-11 6.71-2.75 2.02-6.8 5.78-9 8.37-2.2 2.59-5.7 7.51-7.77 10.94-2.07 3.43-4.77 9.16-6 12.73-1.89 5.51-2.23 8.63-2.23 20.5 0 12.27 0.29 14.74 2.33 20 1.28 3.3 3.98 9.11 6 12.91 2.58 4.85 6.07 9.17 11.71 14.5 5.45 5.15 10.43 8.76 15.5 11.25 4.1 2.01 10.38 4.42 13.96 5.35 3.77 0.99 10.48 1.72 16 1.75 6.92 0.05 11.68-0.55 17.5-2.17 4.4-1.23 10.92-3.76 14.5-5.63 3.58-1.88 9.87-6.57 14-10.43 4.12-3.86 7.95-7.01 8.5-7 0.55 0.02 0.67-0.32 0.26-0.75-0.41-0.43 0.57-3.03 2.17-5.78 1.6-2.75 3.91-7.48 5.12-10.5 1.21-3.02 2.6-7.07 3.08-9 0.48-1.92 0.89-8.67 0.89-15 0.01-7.69-0.52-13.32-1.6-17-0.89-3.02-3.48-9.09-5.77-13.48-2.28-4.39-6.63-10.64-9.65-13.89-3.02-3.25-8.2-7.73-11.5-9.95-3.3-2.22-9.15-5.32-13-6.89-3.85-1.57-9.7-3.29-13-3.81-3.3-0.53-8.7-0.9-12-0.82-3.3 0.08-7.35 0.32-9 0.54z"/>
</svg>